<?xml version="1.0" standalone="no"?>
<!DOCTYPE svg PUBLIC "-//W3C//DTD SVG 20010904//EN"
 "http://www.w3.org/TR/2001/REC-SVG-20010904/DTD/svg10.dtd">
<svg version="1.0" xmlns="http://www.w3.org/2000/svg"
 width="500.000000pt" height="500.000000pt" viewBox="0 0 500.000000 500.000000"
 preserveAspectRatio="xMidYMid meet">

<g transform="translate(0.000000,500.000000) scale(0.100000,-0.100000)"
fill="#000000" stroke="none">
<path d="M3230 4349 c-99 -30 -1341 -403 -1380 -414 -74 -23 -382 -116 -420
-127 -19 -5 -109 -32 -200 -60 -91 -27 -226 -68 -300 -89 -198 -58 -199 -58
-237 -92 -72 -63 -73 -67 -73 -484 l0 -373 443 0 442 0 50 -24 c186 -86 210
-340 42 -453 -26 -17 -69 -36 -97 -42 -34 -7 -255 -11 -643 -11 l-592 0 -50
-24 c-55 -25 -110 -81 -131 -132 -18 -43 -18 -145 0 -189 24 -57 63 -100 118
-131 l53 -29 1005 -5 1005 -5 47 -27 c47 -28 95 -81 115 -129 51 -118 2 -258
-115 -331 -37 -23 -41 -23 -487 -28 -430 -5 -452 -6 -495 -26 -65 -30 -105
-68 -134 -126 -62 -124 -4 -280 126 -339 l53 -24 1490 0 1490 0 55 26 c77 36
124 80 157 147 28 57 28 58 31 294 l3 237 -305 3 -306 3 -27 27 c-38 39 -38
97 0 136 l27 27 418 5 c303 4 423 8 438 17 35 20 73 71 84 114 7 26 10 180 8
453 l-3 412 -28 42 c-15 23 -45 51 -67 62 -38 19 -57 20 -599 20 l-559 0 -30
25 c-16 14 -32 37 -35 52 -6 31 13 86 34 99 8 5 223 11 479 14 l465 5 3 220
c2 180 -1 229 -14 271 -22 72 -79 141 -144 178 l-55 31 -1435 5 c-789 3 -1419
8 -1400 12 42 9 163 23 1135 128 407 44 757 83 778 86 l37 6 0 192 c0 204 -5
238 -47 294 -45 61 -147 93 -223 71z m1531 -1863 c2 -2 3 -178 1 -391 l-2
-386 -578 3 c-646 4 -629 2 -728 77 -223 168 -203 514 37 646 94 51 119 53
715 54 303 1 553 -1 555 -3z"/>
<path d="M3653 2249 c-44 -9 -80 -34 -104 -72 -26 -41 -22 -125 7 -165 30 -41
102 -74 144 -67 50 9 104 48 123 88 54 114 -47 243 -170 216z"/>
</g>
</svg>
